<svg xmlns="http://www.w3.org/2000/svg" xmlns:xlink="http://www.w3.org/1999/xlink" width="200" zoomAndPan="magnify" viewBox="0 0 150 97.5" height="130" preserveAspectRatio="xMidYMid meet" version="1.0"><defs><clipPath id="id1"><path d="M 0.382812 0 L 149.617188 0 L 149.617188 97.003906 L 0.382812 97.003906 Z M 0.382812 0 " clip-rule="nonzero"/></clipPath><clipPath id="id2"><path d="M 4.597656 1.492188 L 145.402344 1.492188 L 145.402344 95.363281 L 4.597656 95.363281 Z M 4.597656 1.492188 " clip-rule="nonzero"/></clipPath></defs><g clip-path="url(#id1)"><path fill="rgb(100%, 100%, 100%)" d="M 0.382812 0 L 149.617188 0 L 149.617188 104.464844 L 0.382812 104.464844 Z M 0.382812 0 " fill-opacity="1" fill-rule="nonzero"/><path fill="rgb(100%, 100%, 100%)" d="M 0.382812 0 L 149.617188 0 L 149.617188 97.003906 L 0.382812 97.003906 Z M 0.382812 0 " fill-opacity="1" fill-rule="nonzero"/><path fill="rgb(100%, 100%, 100%)" d="M 0.382812 0 L 149.617188 0 L 149.617188 97.003906 L 0.382812 97.003906 Z M 0.382812 0 " fill-opacity="1" fill-rule="nonzero"/><path fill="rgb(100%, 100%, 100%)" d="M 0.382812 0 L 149.617188 0 L 149.617188 97.003906 L 0.382812 97.003906 Z M 0.382812 0 " fill-opacity="1" fill-rule="nonzero"/></g><g clip-path="url(#id2)"><path fill="rgb(85.488892%, 16.859436%, 16.859436%)" d="M 139.769531 31.011719 C 139.769531 31.375 139.769531 31.792969 139.65625 32.160156 L 130.992188 66.578125 C 130.574219 68.296875 128.996094 69.546875 127.203125 69.546875 L 75.191406 69.8125 L 23.113281 69.8125 C 21.320312 69.8125 19.742188 68.609375 19.273438 66.84375 L 10.597656 32.3125 C 10.496094 31.894531 10.496094 31.476562 10.496094 31.109375 C 7.136719 30.074219 4.710938 26.941406 4.710938 23.292969 C 4.710938 18.757812 8.449219 15.058594 13.023438 15.058594 C 17.59375 15.058594 21.320312 18.757812 21.320312 23.292969 C 21.320312 25.84375 20.171875 28.144531 18.277344 29.660156 L 29.152344 40.507812 C 31.828125 43.210938 35.667969 44.777344 39.558594 44.777344 C 44.179688 44.777344 48.539062 42.59375 51.332031 38.992188 L 69.140625 15.523438 C 67.609375 14.058594 66.726562 11.976562 66.726562 9.726562 C 66.726562 5.191406 70.453125 1.492188 75.023438 1.492188 C 79.597656 1.492188 83.324219 5.191406 83.324219 9.726562 C 83.324219 11.925781 82.4375 13.90625 81.011719 15.410156 L 98.71875 38.941406 C 101.511719 42.59375 105.867188 44.777344 110.492188 44.777344 C 114.433594 44.777344 118.121094 43.261719 120.898438 40.507812 L 131.835938 29.660156 C 129.941406 28.144531 128.730469 25.84375 128.730469 23.242188 C 128.730469 18.707031 132.457031 14.996094 137.027344 14.996094 C 141.601562 14.996094 145.339844 18.707031 145.339844 23.242188 C 145.289062 26.84375 142.976562 29.859375 139.769531 31.011719 Z M 130.144531 82.0625 C 130.144531 79.929688 128.363281 78.160156 126.203125 78.160156 L 24.261719 78.160156 C 22.117188 78.160156 20.324219 79.929688 20.324219 82.0625 L 20.324219 91.460938 C 20.324219 93.59375 22.117188 95.363281 24.261719 95.363281 L 126.203125 95.363281 C 128.363281 95.363281 130.144531 93.59375 130.144531 91.460938 Z M 130.144531 82.0625 " fill-opacity="1" fill-rule="nonzero"/></g></svg>