<svg xmlns="http://www.w3.org/2000/svg" width="45" viewBox="0 0 45 30" height="30" version="1.0"><defs><clipPath id="a"><path d="M 0.726562 0 L 44.273438 0 L 44.273438 29.03125 L 0.726562 29.03125 Z M 0.726562 0"/></clipPath></defs><g clip-path="url(#a)"><path fill="#C0C0C0" d="M 42.53125 9.128906 C 42.53125 9.242188 42.53125 9.371094 42.496094 9.484375 L 39.816406 20.128906 C 39.6875 20.660156 39.199219 21.046875 38.644531 21.046875 L 22.558594 21.128906 L 6.453125 21.128906 C 5.898438 21.128906 5.410156 20.757812 5.265625 20.210938 L 2.582031 9.53125 C 2.550781 9.402344 2.550781 9.273438 2.550781 9.160156 C 1.511719 8.839844 0.761719 7.871094 0.761719 6.742188 C 0.761719 5.339844 1.917969 4.195312 3.332031 4.195312 C 4.746094 4.195312 5.898438 5.339844 5.898438 6.742188 C 5.898438 7.53125 5.542969 8.242188 4.957031 8.710938 L 8.320312 12.066406 C 9.148438 12.902344 10.335938 13.386719 11.539062 13.386719 C 12.96875 13.386719 14.316406 12.710938 15.179688 11.597656 L 20.6875 4.339844 C 20.214844 3.886719 19.941406 3.242188 19.941406 2.546875 C 19.941406 1.144531 21.09375 0 22.507812 0 C 23.921875 0 25.074219 1.144531 25.074219 2.546875 C 25.074219 3.226562 24.800781 3.839844 24.359375 4.304688 L 29.835938 11.582031 C 30.699219 12.710938 32.046875 13.386719 33.476562 13.386719 C 34.695312 13.386719 35.835938 12.917969 36.695312 12.066406 L 40.078125 8.710938 C 39.492188 8.242188 39.117188 7.53125 39.117188 6.726562 C 39.117188 5.324219 40.269531 4.175781 41.683594 4.175781 C 43.097656 4.175781 44.253906 5.324219 44.253906 6.726562 C 44.238281 7.839844 43.523438 8.773438 42.53125 9.128906 Z M 39.554688 24.917969 C 39.554688 24.257812 39.003906 23.710938 38.335938 23.710938 L 6.808594 23.710938 C 6.144531 23.710938 5.589844 24.257812 5.589844 24.917969 L 5.589844 27.824219 C 5.589844 28.484375 6.144531 29.03125 6.808594 29.03125 L 38.335938 29.03125 C 39.003906 29.03125 39.554688 28.484375 39.554688 27.824219 Z M 39.554688 24.917969"/></g></svg>