<?xml version="1.0" encoding="utf-8"?>
<!-- Generator: Adobe Illustrator 26.0.1, SVG Export Plug-In . SVG Version: 6.00 Build 0)  -->
<svg version="1.0" id="图层_1" xmlns="http://www.w3.org/2000/svg" xmlns:xlink="http://www.w3.org/1999/xlink" x="0px" y="0px"
	 viewBox="0 0 102 30.6" style="enable-background:new 0 0 102 30.6;" xml:space="preserve">
<style type="text/css">
	.st0{fill:#5F524A;}
</style>
<g>
	<path class="st0" d="M16.22,5.99v0.52c-0.59,0.02-1.04,0.08-1.34,0.2s-0.51,0.32-0.61,0.62s-0.16,0.78-0.16,1.42v12.9
		c0,0.62,0.05,1.09,0.16,1.4c0.1,0.31,0.31,0.52,0.61,0.62c0.3,0.1,0.75,0.17,1.34,0.21v0.52c-0.4-0.04-0.9-0.06-1.5-0.06
		c-0.6-0.01-1.2-0.01-1.81-0.01c-0.68,0-1.31,0-1.9,0.01c-0.59,0.01-1.07,0.03-1.43,0.06v-0.52c0.59-0.04,1.04-0.1,1.34-0.21
		c0.3-0.1,0.51-0.31,0.61-0.62c0.1-0.31,0.16-0.78,0.16-1.4V8.75c0-0.64-0.05-1.11-0.16-1.42s-0.31-0.51-0.61-0.62
		c-0.3-0.11-0.75-0.18-1.34-0.2V5.99c0.36,0.02,0.84,0.04,1.43,0.05c0.59,0.02,1.22,0.03,1.9,0.03c0.61,0,1.21-0.01,1.81-0.03
		C15.33,6.03,15.82,6.01,16.22,5.99z"/>
	<path class="st0" d="M26.8,10.65c0.66,0,1.21,0.09,1.65,0.26c0.44,0.17,0.81,0.42,1.1,0.73c0.33,0.35,0.56,0.78,0.7,1.3
		c0.14,0.52,0.21,1.22,0.21,2.11v6.94c0,0.73,0.15,1.22,0.46,1.48s0.81,0.39,1.52,0.39v0.55c-0.29-0.02-0.75-0.04-1.35-0.06
		c-0.61-0.03-1.2-0.04-1.77-0.04c-0.57,0-1.13,0.01-1.68,0.04c-0.55,0.03-0.96,0.05-1.23,0.06v-0.55c0.62,0,1.07-0.13,1.33-0.39
		c0.26-0.26,0.39-0.75,0.39-1.48v-7.51c0-0.54-0.04-1.03-0.13-1.48c-0.09-0.45-0.28-0.81-0.58-1.09c-0.3-0.28-0.77-0.42-1.39-0.42
		c-1.09,0-1.97,0.46-2.64,1.36c-0.67,0.91-1,2.03-1,3.37v5.77c0,0.73,0.13,1.22,0.39,1.48c0.26,0.26,0.7,0.39,1.33,0.39v0.55
		c-0.28-0.02-0.69-0.04-1.24-0.06c-0.55-0.03-1.1-0.04-1.68-0.04c-0.57,0-1.16,0.01-1.77,0.04c-0.61,0.03-1.06,0.05-1.35,0.06v-0.55
		c0.71,0,1.22-0.13,1.52-0.39s0.46-0.75,0.46-1.48v-8.14c0-0.78-0.14-1.36-0.42-1.73c-0.28-0.37-0.8-0.56-1.56-0.56v-0.55
		c0.55,0.05,1.09,0.08,1.61,0.08c0.5,0,0.98-0.03,1.44-0.09c0.46-0.06,0.88-0.15,1.26-0.27v3.07c0.45-1.18,1.08-2,1.89-2.46
		C25.07,10.88,25.92,10.65,26.8,10.65z"/>
	<path class="st0" d="M38.24,10.65c0.69,0,1.28,0.11,1.77,0.34c0.48,0.23,0.84,0.43,1.07,0.62c0.57,0.47,0.92,0.16,1.04-0.94h0.6
		c-0.04,0.49-0.06,1.06-0.08,1.73c-0.02,0.67-0.03,1.56-0.03,2.69h-0.6c-0.1-0.64-0.28-1.27-0.53-1.87
		c-0.25-0.61-0.62-1.1-1.11-1.49c-0.48-0.39-1.12-0.58-1.9-0.58c-0.61,0-1.11,0.17-1.52,0.51c-0.41,0.34-0.61,0.84-0.61,1.5
		c0,0.52,0.16,0.97,0.47,1.34c0.31,0.37,0.72,0.72,1.22,1.04c0.5,0.32,1.05,0.67,1.64,1.05c0.99,0.64,1.83,1.29,2.52,1.95
		s1.04,1.53,1.04,2.6c0,0.8-0.21,1.46-0.62,2s-0.96,0.94-1.62,1.22c-0.67,0.28-1.4,0.42-2.2,0.42c-0.38,0-0.74-0.03-1.08-0.09
		c-0.34-0.06-0.66-0.15-0.98-0.27c-0.17-0.09-0.35-0.19-0.53-0.31c-0.18-0.12-0.36-0.25-0.53-0.39c-0.17-0.14-0.33-0.13-0.47,0.01
		c-0.14,0.15-0.24,0.44-0.31,0.87h-0.6c0.03-0.55,0.06-1.23,0.08-2.03c0.02-0.8,0.03-1.86,0.03-3.17h0.6
		c0.12,0.97,0.29,1.82,0.52,2.55c0.22,0.73,0.58,1.3,1.07,1.7c0.48,0.41,1.16,0.61,2.03,0.61c0.52,0,1.04-0.18,1.55-0.55
		s0.77-1,0.77-1.92c0-0.76-0.28-1.39-0.83-1.87c-0.55-0.48-1.26-1-2.11-1.53c-0.62-0.4-1.21-0.8-1.75-1.2
		c-0.55-0.4-0.99-0.85-1.33-1.35c-0.34-0.5-0.51-1.11-0.51-1.82c0-0.78,0.18-1.42,0.53-1.91s0.83-0.86,1.42-1.09
		C36.93,10.76,37.57,10.65,38.24,10.65z"/>
	<path class="st0" d="M49.34,4.02v17.97c0,0.73,0.15,1.22,0.46,1.48s0.81,0.39,1.52,0.39v0.55c-0.29-0.02-0.74-0.04-1.34-0.06
		c-0.6-0.03-1.2-0.04-1.81-0.04c-0.59,0-1.19,0.01-1.79,0.04c-0.61,0.03-1.06,0.05-1.35,0.06v-0.55c0.71,0,1.22-0.13,1.52-0.39
		S47,22.71,47,21.98V7.14c0-0.78-0.14-1.36-0.42-1.73c-0.28-0.37-0.8-0.56-1.56-0.56V4.3c0.55,0.05,1.09,0.08,1.61,0.08
		c0.5,0,0.98-0.03,1.44-0.09S48.96,4.14,49.34,4.02z"/>
	<path class="st0" d="M56.13,24.58c-1.13,0-1.95-0.28-2.46-0.84c-0.51-0.56-0.77-1.31-0.77-2.25c0-0.73,0.18-1.33,0.53-1.81
		s0.81-0.87,1.37-1.17s1.14-0.56,1.75-0.78s1.2-0.43,1.75-0.64c0.55-0.21,1.01-0.44,1.37-0.7c0.35-0.26,0.53-0.59,0.53-0.99v-1.61
		c0-0.73-0.11-1.28-0.33-1.66c-0.22-0.38-0.51-0.64-0.87-0.77s-0.77-0.19-1.22-0.19c-0.43,0-0.9,0.06-1.39,0.18
		s-0.89,0.37-1.18,0.75c0.33,0.07,0.62,0.24,0.86,0.52c0.24,0.28,0.36,0.63,0.36,1.07c0,0.43-0.14,0.78-0.42,1.03
		c-0.28,0.25-0.63,0.38-1.07,0.38c-0.5,0-0.87-0.16-1.11-0.48c-0.23-0.32-0.35-0.68-0.35-1.08c0-0.45,0.11-0.81,0.34-1.09
		c0.22-0.28,0.51-0.54,0.86-0.78c0.4-0.28,0.91-0.52,1.55-0.71c0.63-0.2,1.35-0.3,2.14-0.3c0.71,0,1.32,0.08,1.82,0.25
		c0.5,0.16,0.92,0.4,1.25,0.71c0.45,0.42,0.75,0.92,0.88,1.52s0.21,1.31,0.21,2.15v7.23c0,0.42,0.06,0.72,0.18,0.92
		s0.33,0.3,0.62,0.3c0.24,0,0.46-0.05,0.64-0.16c0.18-0.1,0.36-0.23,0.53-0.39l0.29,0.44c-0.36,0.28-0.71,0.51-1.04,0.69
		c-0.33,0.18-0.77,0.27-1.33,0.27c-0.9,0-1.5-0.23-1.79-0.7c-0.29-0.47-0.44-1.01-0.44-1.61c-0.56,0.92-1.18,1.53-1.89,1.85
		C57.63,24.43,56.89,24.58,56.13,24.58z M57.27,23.54c0.52,0,1.03-0.15,1.53-0.46c0.5-0.3,0.97-0.81,1.4-1.52v-5.1
		c-0.26,0.38-0.66,0.68-1.21,0.91c-0.55,0.22-1.11,0.47-1.69,0.74c-0.58,0.27-1.08,0.63-1.5,1.09c-0.42,0.46-0.62,1.11-0.62,1.96
		c0,0.8,0.2,1.39,0.6,1.78C56.19,23.35,56.69,23.54,57.27,23.54z"/>
	<path class="st0" d="M71.96,10.65c0.76,0,1.48,0.18,2.14,0.55c0.67,0.36,1.11,0.99,1.34,1.87l-0.34,0.26
		c-0.24-0.73-0.62-1.26-1.13-1.59c-0.51-0.33-1.11-0.49-1.81-0.49c-1.02,0-1.88,0.53-2.56,1.59c-0.69,1.06-1.02,2.69-1,4.89
		c0,1.4,0.13,2.57,0.4,3.5c0.27,0.93,0.67,1.62,1.2,2.08c0.53,0.46,1.17,0.69,1.94,0.69c0.73,0,1.39-0.31,1.98-0.94
		c0.59-0.62,0.94-1.54,1.07-2.76l0.31,0.36c-0.14,1.32-0.56,2.33-1.26,3.04c-0.7,0.71-1.65,1.07-2.85,1.07
		c-1.07,0-2.01-0.26-2.82-0.78c-0.81-0.52-1.42-1.3-1.85-2.34s-0.64-2.35-0.64-3.93c0-1.58,0.27-2.89,0.82-3.94
		c0.55-1.05,1.26-1.83,2.16-2.35S70.92,10.65,71.96,10.65z M77.42,4.02v17.55c0,0.78,0.14,1.36,0.43,1.73
		c0.29,0.37,0.8,0.56,1.55,0.56v0.55c-0.54-0.05-1.07-0.08-1.61-0.08c-0.5,0-0.98,0.03-1.44,0.08s-0.88,0.15-1.26,0.29V7.14
		c0-0.78-0.14-1.36-0.42-1.73c-0.28-0.37-0.8-0.56-1.56-0.56V4.3c0.55,0.05,1.09,0.08,1.61,0.08c0.5,0,0.98-0.03,1.44-0.09
		C76.62,4.23,77.04,4.14,77.42,4.02z"/>
	<path class="st0" d="M92.79,11.01v0.52c-0.33,0.04-0.63,0.18-0.91,0.44c-0.28,0.26-0.54,0.72-0.78,1.38l-4.26,11.18h-0.44
		l-4.78-11.52c-0.33-0.68-0.65-1.09-0.97-1.23c-0.32-0.15-0.59-0.22-0.79-0.22v-0.55c0.38,0.05,0.78,0.09,1.2,0.12
		s0.87,0.04,1.35,0.04c0.54,0,1.1-0.02,1.7-0.05c0.6-0.03,1.16-0.07,1.68-0.1v0.55c-0.43,0-0.82,0.03-1.16,0.09
		c-0.34,0.06-0.55,0.24-0.64,0.55c-0.09,0.3,0.02,0.82,0.31,1.55l3.2,7.93l-0.16,0.05l2.96-7.75c0.33-0.87,0.36-1.47,0.1-1.82
		c-0.26-0.35-0.85-0.55-1.77-0.62v-0.52c0.45,0.02,0.83,0.04,1.13,0.05c0.3,0.02,0.65,0.03,1.05,0.03c0.4,0,0.76-0.01,1.08-0.03
		C92.21,11.04,92.51,11.03,92.79,11.01z M86.84,24.53l-0.88,2.26c-0.33,0.85-0.7,1.46-1.12,1.82c-0.28,0.26-0.61,0.44-0.99,0.53
		c-0.38,0.09-0.73,0.14-1.04,0.14c-0.33,0-0.63-0.06-0.9-0.18s-0.48-0.3-0.64-0.53c-0.16-0.23-0.23-0.52-0.23-0.84
		c0-0.42,0.12-0.75,0.36-1c0.24-0.25,0.58-0.38,1.01-0.38c0.36,0,0.68,0.1,0.94,0.31s0.39,0.51,0.39,0.91
		c0,0.29-0.07,0.54-0.21,0.73c-0.14,0.19-0.3,0.34-0.49,0.44c0.04,0.02,0.07,0.03,0.09,0.03c0.03,0,0.05,0,0.07,0
		c0.47,0,0.88-0.16,1.25-0.48c0.36-0.32,0.68-0.84,0.96-1.55l0.94-2.42L86.84,24.53z"/>
</g>
<g>
</g>
<g>
</g>
<g>
</g>
<g>
</g>
<g>
</g>
<g>
</g>
<g>
</g>
<g>
</g>
<g>
</g>
<g>
</g>
<g>
</g>
<g>
</g>
<g>
</g>
<g>
</g>
<g>
</g>
</svg>
