<?xml version="1.0" encoding="utf-8"?>
<!-- Generator: Adobe Illustrator 25.2.1, SVG Export Plug-In . SVG Version: 6.00 Build 0)  -->
<svg version="1.1" id="レイヤー_1" xmlns="http://www.w3.org/2000/svg" xmlns:xlink="http://www.w3.org/1999/xlink" x="0px"
	 y="0px" viewBox="0 0 45.48 43.76" style="enable-background:new 0 0 45.48 43.76;" xml:space="preserve">
<g>
	<rect y="25.42" width="45.43" height="3.03"/>
</g>
<g>
	<g>
		<path d="M1.88,0H3.9l2.52,7.59L8.97,0h2.02l1.83,10.88h-2L9.64,4.01l-2.31,6.87H5.5L3.21,4.01l-1.19,6.87H0L1.88,0z"/>
		<path d="M15.96,0h5.94v2.03h-3.88v1.97h3.88v1.99h-3.88v2.86h3.88v2.03h-5.94V0z"/>
		<path d="M25.49,0h1.99l4.66,7.16V0h2.07v10.88h-1.99l-4.65-7.14v7.14h-2.07V0z"/>
		<path d="M38.06,0h2.08v7.04c0,0.61,0.05,1.03,0.16,1.29s0.28,0.45,0.53,0.6c0.24,0.15,0.54,0.23,0.88,0.23
			c0.36,0,0.68-0.08,0.94-0.25c0.26-0.17,0.45-0.38,0.55-0.64c0.1-0.26,0.15-0.75,0.15-1.48V0h2.08v6.49c0,1.09-0.06,1.85-0.18,2.28
			c-0.12,0.42-0.36,0.83-0.71,1.23c-0.35,0.39-0.75,0.69-1.2,0.88s-0.98,0.28-1.58,0.28c-0.79,0-1.48-0.18-2.06-0.54
			c-0.58-0.36-1-0.82-1.25-1.36c-0.25-0.54-0.38-1.47-0.38-2.76V0z"/>
	</g>
	<g>
		<rect x="0.05" y="40.73" width="45.43" height="3.03"/>
	</g>
</g>
</svg>
